PathFileType	4	(X/Y/Z)	Run_200 02
DataRate	CameraRate	NumFrames	NumMarkers	Units	OrigDataRate	OrigDataStartFrame	OrigNumFrames
100	100	5	42	mm	100	487	128
Frame#	Time	RASI			LPSI			RPSI			RTH2			RTH3			LTH1			LTH2			LTH3			RTB1			RTB2			LTB1			LTB2			LTB3			RCAL			RMT5			LCAL			LTOE			LMT5			LACR			RACR			CLAV			C7			RUA1			RUA2			RUA3			RLEL			LUA1			LUA2			LUA3			LLEL			RFAsuperior			RFAradius			RFAulna			LFAsuperior			LFAradius			LFAulna			RTOE			RTH1			LMEL			RTB3			RMEL			LASI		
		X1	Y1	Z1	X2	Y2	Z2	X3	Y3	Z3	X4	Y4	Z4	X5	Y5	Z5	X6	Y6	Z6	X7	Y7	Z7	X8	Y8	Z8	X9	Y9	Z9	X10	Y10	Z10	X11	Y11	Z11	X12	Y12	Z12	X13	Y13	Z13	X14	Y14	Z14	X15	Y15	Z15	X16	Y16	Z16	X17	Y17	Z17	X18	Y18	Z18	X19	Y19	Z19	X20	Y20	Z20	X21	Y21	Z21	X22	Y22	Z22	X23	Y23	Z23	X24	Y24	Z24	X25	Y25	Z25	X26	Y26	Z26	X27	Y27	Z27	X28	Y28	Z28	X29	Y29	Z29	X30	Y30	Z30	X31	Y31	Z31	X32	Y32	Z32	X33	Y33	Z33	X34	Y34	Z34	X35	Y35	Z35	X36	Y36	Z36	X37	Y37	Z37	X38	Y38	Z38	X39	Y39	Z39	X40	Y40	Z40	X41	Y41	Z41	X42	Y42	Z42	

487	  4.870000	1001.988632	1058.961411	-224.514987	857.236135	1111.409426	-415.448091	845.277749	1107.984743	-302.193556	918.202239	785.367887	-198.081261	1000.546256	648.868664	-204.406676	965.223155	916.158012	-516.962783	872.427011	771.976267	-483.984795	914.365339	633.788155	-475.621094	1084.544212	401.698537	-276.431351	1001.249336	354.970102	-213.192628	848.684541	419.245690	-415.639446	712.295814	434.105347	-468.298175	652.415115	323.674469	-419.967970	922.759979	 94.450912	-304.728016	1120.102539	 50.563433	-240.237350	482.111162	365.257634	-399.297814	561.948371	142.063909	-391.327385	502.214940	166.093817	-482.944611	982.107084	1553.496786	-491.527388	983.908459	1520.310968	-174.985206	1045.223758	1494.487516	-302.394930	925.483328	1561.854506	-340.101950	849.588329	1455.680742	-129.248148	873.622546	1388.897986	-91.872838	783.133402	1334.967147	-67.850562	732.930995	1285.205529	-50.795818	890.395320	1460.153059	-559.208793	923.194644	1386.187406	-587.043597	855.858510	1322.524566	-623.023503	843.299621	1254.976753	-643.479539	806.891534	1205.944457	-34.262357	959.175828	1125.691543	-93.336696	915.877649	1085.543897	-57.323748	911.478800	1210.691349	-622.810767	1055.596652	1231.124636	-502.788162	1063.230658	1165.298721	-532.715366	1163.750394	 81.703173	-333.194446	933.267269	939.522094	-170.223288	811.738500	1234.111634	-560.543660	1048.501617	216.951456	-300.800053	742.499884	1256.872886	-134.562732	1018.229299	1045.425999	-465.803348	
488	  4.880000	1000.606748	1050.856724	-223.954898	855.898647	1102.663733	-415.517162	843.720113	1099.891265	-301.848976	918.449319	778.831168	-198.061436	1002.266523	642.193327	-205.061407	966.240215	908.332923	-515.779488	878.452927	761.237797	-484.240616	924.075108	624.864645	-477.356636	1083.750468	395.996155	-280.416786	1000.169889	352.187750	-215.766933	860.339268	413.027062	-418.215889	724.330653	432.931975	-469.509535	660.884139	324.291773	-422.403469	904.541652	 95.505472	-306.656960	1101.609630	 50.312799	-240.735563	491.503329	371.081383	-398.020800	566.716612	146.027756	-398.897052	506.978702	175.007831	-489.314534	980.013655	1544.685013	-491.184029	985.685904	1510.332004	-173.149583	1045.811415	1485.190564	-301.952458	925.074151	1552.968109	-338.599740	852.664269	1443.154075	-124.283257	879.048447	1375.758418	-88.985214	790.164369	1319.768371	-63.389330	741.143742	1269.551089	-45.736501	887.327657	1450.892234	-557.072830	920.051955	1376.637607	-585.496230	852.181028	1313.387170	-620.516049	838.560552	1246.487264	-641.418350	816.330906	1191.173867	-30.546294	968.686336	1113.055807	-92.185605	926.450988	1072.174736	-55.702750	905.896909	1199.823416	-622.055443	1052.058337	1214.073399	-503.106024	1057.375285	1148.798770	-534.735059	1145.912476	 75.985984	-334.568796	932.223257	931.738415	-170.391670	807.720429	1226.279253	-558.168270	1037.596588	212.565528	-304.068128	749.031195	1242.073145	-129.464656	1016.736239	1037.102496	-465.268271	
489	  4.890000	998.745612	1043.760611	-223.990158	854.374653	1094.476457	-416.054559	841.625144	1092.819359	-302.066653	919.040035	772.971955	-198.359665	1004.398820	636.537370	-206.191972	967.361542	900.568343	-514.470285	884.660944	750.755836	-484.679520	934.007657	616.592644	-478.814568	1081.781402	391.685851	-284.879405	999.336802	351.283509	-217.564435	872.846915	407.434384	-420.559852	737.444998	431.484644	-471.178339	670.924522	324.770984	-424.549146	885.866411	 96.699712	-307.517346	1082.791392	 51.171753	-241.845013	502.311155	375.657223	-396.988312	574.310259	149.496151	-405.858993	514.972551	182.853869	-495.195839	977.651120	1536.280866	-491.401671	987.505147	1500.620639	-171.190126	1046.314420	1476.428018	-301.619813	925.118753	1545.157528	-336.921430	856.004288	1429.418807	-119.064290	885.098597	1361.848087	-86.364417	797.978774	1303.656999	-59.151438	750.226747	1253.225042	-40.863321	884.017343	1441.468353	-554.928020	916.572050	1366.966595	-583.981837	848.104493	1303.956530	-617.815519	833.342957	1237.833649	-639.256150	826.337978	1175.465577	-26.947777	978.741607	1099.295654	-91.116039	937.443580	1057.800017	-54.346003	899.731176	1188.459782	-621.295822	1048.067957	1195.825601	-503.853031	1050.729462	1131.157113	-537.065458	1127.435751	 74.549403	-336.712508	930.604757	925.374084	-169.921396	803.929948	1218.126185	-555.626621	1025.358518	210.021310	-306.112719	756.403564	1226.589960	-124.577237	1014.764614	1029.927912	-465.345286	
490	  4.900000	996.594832	1037.459979	-224.432347	852.642078	1087.506455	-416.704178	839.242015	1086.565906	-302.705077	919.310537	767.429387	-199.182836	1006.222106	631.472790	-207.146964	968.572511	893.736321	-513.668848	890.839113	741.543504	-485.021024	944.210439	609.825113	-480.166771	1077.720909	387.259357	-287.895955	996.366090	350.459214	-218.374139	886.333049	402.857275	-422.595130	751.470250	430.215574	-473.036737	682.636811	325.207409	-426.364056	866.913796	 97.863936	-307.853565	1063.453164	 51.424683	-242.767074	514.297733	378.906994	-396.522056	584.869077	152.382523	-411.806182	526.383615	189.145211	-500.329527	975.253229	1528.749832	-491.838129	989.056656	1491.866971	-169.456226	1046.600227	1468.838146	-301.441650	925.746213	1538.899061	-335.216264	860.067428	1415.024955	-113.679515	891.808700	1347.745536	-84.376148	806.652188	1287.123460	-55.359246	760.340637	1236.504547	-36.398489	880.611241	1432.687666	-552.707732	912.750493	1357.989250	-582.428483	843.672319	1294.889997	-614.831417	827.777058	1229.543657	-636.880796	837.039985	1158.949838	-23.564439	989.528132	1084.586450	-90.259816	948.985777	1042.626111	-53.399499	892.916244	1177.003411	-620.434890	1043.554597	1176.631080	-504.958350	1043.246724	1112.939282	-540.010808	1108.669020	 74.464346	-338.758174	928.711765	920.099178	-169.374975	800.193791	1210.010962	-552.723018	1011.984924	208.086974	-307.137867	765.024657	1210.548378	-120.192170	1012.531209	1023.576515	-465.840462	
491	  4.910000	994.522347	1031.717823	-224.731380	850.502548	1082.038051	-416.925516	836.965557	1080.875584	-303.227706	918.602649	762.219472	-200.221019	1006.584134	626.527004	-207.523784	969.472393	888.577567	-513.696858	896.756466	734.369006	-484.873074	954.662339	605.022178	-481.451403	1071.450898	381.776149	-289.025494	989.932178	348.284399	-218.635865	900.822198	399.881149	-424.167403	766.209806	429.404623	-474.725125	695.985650	325.533801	-427.889511	847.665022	 98.772256	-308.064968	1043.664114	 50.987431	-243.133640	527.163880	380.709356	-396.729406	598.383658	154.562343	-416.347397	541.119956	193.498234	-504.587135	973.146286	1522.278454	-492.126900	990.104541	1484.509598	-168.239276	1046.662473	1462.589051	-301.445855	926.584944	1533.886007	-333.895910	865.383542	1401.259417	-108.747396	899.074805	1334.494503	-83.156146	816.248333	1270.977600	-52.071400	771.742617	1219.760692	-32.410692	877.379921	1425.235843	-550.431678	908.690981	1350.438236	-580.790065	838.992989	1286.977813	-611.564326	822.144390	1222.202011	-634.154048	848.904178	1142.118878	-20.549690	1001.303222	1069.318715	-89.898568	961.350082	1027.077600	-53.014953	885.536378	1166.069940	-619.358861	1038.377114	1156.892595	-506.238515	1034.865683	1094.890188	-543.775033	1089.526111	 74.060604	-340.045628	926.939408	915.402296	-169.209809	796.247745	1202.644740	-549.264696	997.608379	205.653069	-307.720102	775.260090	1194.278383	-116.409616	1010.388472	1017.731971	-466.189818	
